name rise35.5848peak51.9257fall54.8793.mot
datacolumns 19
datarows 15
range 21.34991100000000 21.37324300000000
endheader
time	ground_force1_vx	ground_force1_vy	ground_force1_vz	ground_force1_px	ground_force1_py	ground_force1_pz	ground_force2_vx	ground_force2_vy	ground_force2_vz	ground_force2_px	ground_force2_py	ground_force2_pz	ground_torque1_x	ground_torque1_y	ground_torque1_z	ground_torque2_x	ground_torque2_y	ground_torque2_z	
21.34991100000000	10.80071500000000	715.66766399999995	40.56774100000000	0.20530500000000	0.00000000000000	0.11574200000000	0.00000000000000	0.00000000000000	0.00000000000000	0.00000000000000	0.00000000000000	0.00000000000000	0.00000000000000	14.65938100000000	0.00000000000000	0.00000000000000	0.00000000000000	0.00000000000000	
21.35157900000000	10.23784300000000	716.63010699999995	40.58489000000000	0.20429500000000	0.00000000000000	0.11571700000000	0.00000000000000	0.00000000000000	0.00000000000000	0.00000000000000	0.00000000000000	0.00000000000000	0.00000000000000	14.74820800000000	0.00000000000000	0.00000000000000	0.00000000000000	0.00000000000000	
21.35324800000000	9.66290300000000	717.60419600000000	40.60570800000000	0.20327000000000	0.00000000000000	0.11569300000000	0.00000000000000	0.00000000000000	0.00000000000000	0.00000000000000	0.00000000000000	0.00000000000000	0.00000000000000	14.84077600000000	0.00000000000000	0.00000000000000	0.00000000000000	0.00000000000000	
21.35491000000000	9.07608300000000	718.58897000000002	40.63003100000000	0.20223000000000	0.00000000000000	0.11567000000000	0.00000000000000	0.00000000000000	0.00000000000000	0.00000000000000	0.00000000000000	0.00000000000000	0.00000000000000	14.93695900000000	0.00000000000000	0.00000000000000	0.00000000000000	0.00000000000000	
21.35658200000000	8.47760900000000	719.58356600000002	40.65769800000000	0.20117700000000	0.00000000000000	0.11564800000000	0.00000000000000	0.00000000000000	0.00000000000000	0.00000000000000	0.00000000000000	0.00000000000000	0.00000000000000	15.03662900000000	0.00000000000000	0.00000000000000	0.00000000000000	0.00000000000000	
21.35824600000000	7.86774300000000	720.58721800000001	40.68854600000000	0.20011100000000	0.00000000000000	0.11562800000000	0.00000000000000	0.00000000000000	0.00000000000000	0.00000000000000	0.00000000000000	0.00000000000000	0.00000000000000	15.13965300000000	0.00000000000000	0.00000000000000	0.00000000000000	0.00000000000000	
21.35991600000000	7.24678500000000	721.59925599999997	40.72241800000000	0.19903300000000	0.00000000000000	0.11560900000000	0.00000000000000	0.00000000000000	0.00000000000000	0.00000000000000	0.00000000000000	0.00000000000000	0.00000000000000	15.24589500000000	0.00000000000000	0.00000000000000	0.00000000000000	0.00000000000000	
21.36157800000000	6.61506700000000	722.61910899999998	40.75915700000000	0.19794500000000	0.00000000000000	0.11559100000000	0.00000000000000	0.00000000000000	0.00000000000000	0.00000000000000	0.00000000000000	0.00000000000000	0.00000000000000	15.35521500000000	0.00000000000000	0.00000000000000	0.00000000000000	0.00000000000000	
21.36324800000000	5.97295600000000	723.64630399999999	40.79861100000000	0.19684700000000	0.00000000000000	0.11557400000000	0.00000000000000	0.00000000000000	0.00000000000000	0.00000000000000	0.00000000000000	0.00000000000000	0.00000000000000	15.46746800000000	0.00000000000000	0.00000000000000	0.00000000000000	0.00000000000000	
21.36491300000000	5.32084900000000	724.68046200000003	40.84063000000000	0.19574000000000	0.00000000000000	0.11555800000000	0.00000000000000	0.00000000000000	0.00000000000000	0.00000000000000	0.00000000000000	0.00000000000000	0.00000000000000	15.58250800000000	0.00000000000000	0.00000000000000	0.00000000000000	0.00000000000000	
21.36657900000000	4.65917700000000	725.72130100000004	40.88507200000000	0.19462500000000	0.00000000000000	0.11554300000000	0.00000000000000	0.00000000000000	0.00000000000000	0.00000000000000	0.00000000000000	0.00000000000000	0.00000000000000	15.70018500000000	0.00000000000000	0.00000000000000	0.00000000000000	0.00000000000000	
21.36824700000000	3.98839500000000	726.76863000000003	40.93179600000000	0.19350500000000	0.00000000000000	0.11552900000000	0.00000000000000	0.00000000000000	0.00000000000000	0.00000000000000	0.00000000000000	0.00000000000000	0.00000000000000	15.82034600000000	0.00000000000000	0.00000000000000	0.00000000000000	0.00000000000000	
21.36991100000000	3.30898900000000	727.82234800000003	40.98066900000000	0.19237900000000	0.00000000000000	0.11551500000000	0.00000000000000	0.00000000000000	0.00000000000000	0.00000000000000	0.00000000000000	0.00000000000000	0.00000000000000	15.94283500000000	0.00000000000000	0.00000000000000	0.00000000000000	0.00000000000000	
21.37158300000000	2.62146600000000	728.88243999999997	41.03156600000000	0.19125000000000	0.00000000000000	0.11550200000000	0.00000000000000	0.00000000000000	0.00000000000000	0.00000000000000	0.00000000000000	0.00000000000000	0.00000000000000	16.06749400000000	0.00000000000000	0.00000000000000	0.00000000000000	0.00000000000000	
21.37324300000000	1.92636000000000	729.94897500000002	41.08436500000000	0.19011700000000	0.00000000000000	0.11548900000000	0.00000000000000	0.00000000000000	0.00000000000000	0.00000000000000	0.00000000000000	0.00000000000000	0.00000000000000	16.19416400000000	0.00000000000000	0.00000000000000	0.00000000000000	0.00000000000000	
